<svg width="34" height="30" viewBox="0 0 34 30" fill="none" xmlns="http://www.w3.org/2000/svg">
<rect width="34" height="30" rx="5" fill="#00CC6B"/>
<path d="M10.942 21V14.304H12.706V12.306H10.942V11.946C10.942 11.1 11.374 10.686 12.022 10.686C12.328 10.686 12.58 10.74 12.76 10.866L13.228 9.174C12.814 8.958 12.238 8.814 11.572 8.814C9.898 8.814 8.656 9.912 8.656 11.946V12.306H7.216V14.304H8.656V21H10.942ZM24.1027 21L26.7487 12.306H24.3547L22.7347 18.156L20.8267 12.306H18.7927L16.8847 18.156L15.2647 12.306H12.8887L15.5347 21H17.9827L19.8187 15.078L21.6547 21H24.1027Z" fill="white"/>
<circle cx="5" cy="5" r="1" fill="white"/>
<circle cx="8" cy="5" r="1" fill="white"/>
<circle cx="11" cy="5" r="1" fill="white"/>
</svg>
